<mxfile host="Electron" modified="2024-05-16T10:00:46.032Z" agent="Mozilla/5.0 (Macintosh; Intel Mac OS X 10_15_7) AppleWebKit/537.36 (KHTML, like Gecko) draw.io/24.4.0 Chrome/120.0.6099.109 Electron/28.1.0 Safari/537.36" etag="G3_eDkDntZbO2DwIo7tz" version="24.4.0" type="device">
  <diagram name="Page-1" id="M7156MfN8xTuGvPPiqDf">
    <mxGraphModel dx="1306" dy="947" grid="0" gridSize="10" guides="1" tooltips="1" connect="1" arrows="1" fold="1" page="1" pageScale="1" pageWidth="5000" pageHeight="11600" background="none" math="0" shadow="0">
      <root>
        <mxCell id="0" />
        <mxCell id="1" parent="0" />
        <mxCell id="TO4eEFyR-_5ruXjA75jF-170" style="edgeStyle=orthogonalEdgeStyle;rounded=0;orthogonalLoop=1;jettySize=auto;html=1;entryX=1;entryY=0.5;entryDx=0;entryDy=0;" parent="1" source="TO4eEFyR-_5ruXjA75jF-136" target="TO4eEFyR-_5ruXjA75jF-125" edge="1">
          <mxGeometry relative="1" as="geometry" />
        </mxCell>
        <mxCell id="TO4eEFyR-_5ruXjA75jF-171" value="Query" style="edgeLabel;html=1;align=center;verticalAlign=middle;resizable=0;points=[];" parent="TO4eEFyR-_5ruXjA75jF-170" vertex="1" connectable="0">
          <mxGeometry x="-0.6802" y="-3" relative="1" as="geometry">
            <mxPoint as="offset" />
          </mxGeometry>
        </mxCell>
        <mxCell id="TO4eEFyR-_5ruXjA75jF-172" style="edgeStyle=orthogonalEdgeStyle;rounded=0;orthogonalLoop=1;jettySize=auto;html=1;entryX=0.75;entryY=1;entryDx=0;entryDy=0;" parent="1" source="TO4eEFyR-_5ruXjA75jF-136" target="TO4eEFyR-_5ruXjA75jF-122" edge="1">
          <mxGeometry relative="1" as="geometry" />
        </mxCell>
        <mxCell id="TO4eEFyR-_5ruXjA75jF-173" style="edgeStyle=orthogonalEdgeStyle;rounded=0;orthogonalLoop=1;jettySize=auto;html=1;" parent="1" source="TO4eEFyR-_5ruXjA75jF-136" target="TO4eEFyR-_5ruXjA75jF-174" edge="1">
          <mxGeometry relative="1" as="geometry">
            <mxPoint x="1596.2222222222222" y="2080.5" as="targetPoint" />
          </mxGeometry>
        </mxCell>
        <mxCell id="TO4eEFyR-_5ruXjA75jF-136" value="" style="rounded=0;whiteSpace=wrap;html=1;" parent="1" vertex="1">
          <mxGeometry x="1057.43" y="2007" width="169.57" height="147" as="geometry" />
        </mxCell>
        <mxCell id="TO4eEFyR-_5ruXjA75jF-135" value="&lt;b&gt;Azure Monitor&lt;/b&gt;&lt;div&gt;&lt;b&gt;Metrics, logs&lt;/b&gt;&lt;/div&gt;" style="rounded=0;whiteSpace=wrap;html=1;" parent="1" vertex="1">
          <mxGeometry x="315" y="1722" width="169" height="149" as="geometry" />
        </mxCell>
        <mxCell id="TO4eEFyR-_5ruXjA75jF-167" style="edgeStyle=orthogonalEdgeStyle;rounded=0;orthogonalLoop=1;jettySize=auto;html=1;exitX=0.75;exitY=0;exitDx=0;exitDy=0;" parent="1" source="TO4eEFyR-_5ruXjA75jF-129" target="TO4eEFyR-_5ruXjA75jF-122" edge="1">
          <mxGeometry relative="1" as="geometry" />
        </mxCell>
        <mxCell id="TO4eEFyR-_5ruXjA75jF-129" value="&lt;font style=&quot;font-size: 14px;&quot;&gt;&lt;b&gt;Azure Dashboards&lt;/b&gt;&lt;/font&gt;" style="rounded=0;whiteSpace=wrap;html=1;" parent="1" vertex="1">
          <mxGeometry x="642" y="2010" width="248" height="154" as="geometry" />
        </mxCell>
        <mxCell id="TO4eEFyR-_5ruXjA75jF-125" value="&lt;b&gt;Log analytic workspace&lt;br&gt;(audit logs , logs)&lt;/b&gt;" style="rounded=1;whiteSpace=wrap;html=1;" parent="1" vertex="1">
          <mxGeometry x="545" y="1719" width="297" height="152" as="geometry" />
        </mxCell>
        <mxCell id="TO4eEFyR-_5ruXjA75jF-122" value="&lt;b&gt;Application Insights&lt;/b&gt;" style="rounded=1;whiteSpace=wrap;html=1;" parent="1" vertex="1">
          <mxGeometry x="1024" y="1697" width="212" height="117" as="geometry" />
        </mxCell>
        <mxCell id="TO4eEFyR-_5ruXjA75jF-101" value="" style="rounded=0;whiteSpace=wrap;html=1;" parent="1" vertex="1">
          <mxGeometry x="763" y="1439" width="156" height="137" as="geometry" />
        </mxCell>
        <mxCell id="TO4eEFyR-_5ruXjA75jF-78" value="" style="rounded=1;whiteSpace=wrap;html=1;" parent="1" vertex="1">
          <mxGeometry x="622" y="39" width="488" height="349" as="geometry" />
        </mxCell>
        <mxCell id="TO4eEFyR-_5ruXjA75jF-71" value="" style="rounded=1;whiteSpace=wrap;html=1;" parent="1" vertex="1">
          <mxGeometry x="700.5" y="548" width="459" height="352" as="geometry" />
        </mxCell>
        <mxCell id="TO4eEFyR-_5ruXjA75jF-1" value="Azure DevOps&lt;br&gt;Repo &amp;amp;&lt;div&gt;Pipelines&lt;/div&gt;" style="rounded=0;whiteSpace=wrap;html=1;" parent="1" vertex="1">
          <mxGeometry x="57" y="167" width="127" height="172" as="geometry" />
        </mxCell>
        <mxCell id="TO4eEFyR-_5ruXjA75jF-4" value="Terraform" style="rounded=1;whiteSpace=wrap;html=1;" parent="1" vertex="1">
          <mxGeometry x="288" y="183" width="120" height="60" as="geometry" />
        </mxCell>
        <mxCell id="TO4eEFyR-_5ruXjA75jF-36" style="edgeStyle=orthogonalEdgeStyle;rounded=0;orthogonalLoop=1;jettySize=auto;html=1;labelBorderColor=default;" parent="1" source="TO4eEFyR-_5ruXjA75jF-6" target="TO4eEFyR-_5ruXjA75jF-26" edge="1">
          <mxGeometry relative="1" as="geometry" />
        </mxCell>
        <mxCell id="TO4eEFyR-_5ruXjA75jF-6" value="Ansible" style="rounded=1;whiteSpace=wrap;html=1;" parent="1" vertex="1">
          <mxGeometry x="288" y="279" width="120" height="60" as="geometry" />
        </mxCell>
        <mxCell id="TO4eEFyR-_5ruXjA75jF-22" style="edgeStyle=orthogonalEdgeStyle;rounded=0;orthogonalLoop=1;jettySize=auto;html=1;exitX=1;exitY=0.5;exitDx=0;exitDy=0;" parent="1" source="TO4eEFyR-_5ruXjA75jF-8" edge="1">
          <mxGeometry relative="1" as="geometry">
            <mxPoint x="619.5555555555557" y="211.5" as="targetPoint" />
            <mxPoint x="576.0000000000002" y="211.55555555555566" as="sourcePoint" />
            <Array as="points">
              <mxPoint x="608" y="212" />
              <mxPoint x="608" y="212" />
            </Array>
          </mxGeometry>
        </mxCell>
        <mxCell id="TO4eEFyR-_5ruXjA75jF-8" value="&lt;span style=&quot;color: rgb(36, 36, 36); font-family: source-serif-pro, Georgia, Cambria, &amp;quot;Times New Roman&amp;quot;, Times, serif; letter-spacing: -0.06px; text-align: left; background-color: rgb(255, 255, 255);&quot;&gt;&lt;font style=&quot;font-size: 12px;&quot;&gt;vSphere tf provider&lt;/font&gt;&lt;/span&gt;" style="whiteSpace=wrap;html=1;rounded=1;arcSize=19;" parent="1" vertex="1">
          <mxGeometry x="465" y="183" width="101" height="57" as="geometry" />
        </mxCell>
        <mxCell id="TO4eEFyR-_5ruXjA75jF-16" value="" style="endArrow=none;dashed=1;html=1;dashPattern=1 3;strokeWidth=2;rounded=0;entryX=0.004;entryY=0.398;entryDx=0;entryDy=0;entryPerimeter=0;exitX=0.991;exitY=0.419;exitDx=0;exitDy=0;exitPerimeter=0;" parent="1" source="TO4eEFyR-_5ruXjA75jF-1" target="TO4eEFyR-_5ruXjA75jF-4" edge="1">
          <mxGeometry width="50" height="50" relative="1" as="geometry">
            <mxPoint x="197" y="240" as="sourcePoint" />
            <mxPoint x="247" y="190" as="targetPoint" />
          </mxGeometry>
        </mxCell>
        <mxCell id="TO4eEFyR-_5ruXjA75jF-19" value="" style="endArrow=none;dashed=1;html=1;dashPattern=1 3;strokeWidth=2;rounded=0;exitX=1.009;exitY=0.452;exitDx=0;exitDy=0;exitPerimeter=0;" parent="1" source="TO4eEFyR-_5ruXjA75jF-1" edge="1">
          <mxGeometry width="50" height="50" relative="1" as="geometry">
            <mxPoint x="193" y="249" as="sourcePoint" />
            <mxPoint x="287" y="308" as="targetPoint" />
          </mxGeometry>
        </mxCell>
        <mxCell id="TO4eEFyR-_5ruXjA75jF-21" value="" style="endArrow=none;dashed=1;html=1;rounded=0;exitX=1;exitY=0.5;exitDx=0;exitDy=0;" parent="1" source="TO4eEFyR-_5ruXjA75jF-4" edge="1">
          <mxGeometry width="50" height="50" relative="1" as="geometry">
            <mxPoint x="479" y="529" as="sourcePoint" />
            <mxPoint x="463" y="213" as="targetPoint" />
          </mxGeometry>
        </mxCell>
        <mxCell id="TO4eEFyR-_5ruXjA75jF-26" value="java app&lt;br&gt;&amp;nbsp;&lt;br&gt;&lt;br&gt;spring cloud config&amp;nbsp;&lt;div&gt;client app&lt;/div&gt;" style="rounded=0;whiteSpace=wrap;html=1;fontColor=default;" parent="1" vertex="1">
          <mxGeometry x="783" y="193" width="175" height="86" as="geometry" />
        </mxCell>
        <mxCell id="TO4eEFyR-_5ruXjA75jF-30" value="&lt;h1 style=&quot;margin-top: 0px;&quot;&gt;&lt;br&gt;&lt;div style=&quot;font-size: 12px; text-align: center;&quot;&gt;vcenter server&amp;nbsp;&lt;/div&gt;&lt;div style=&quot;font-size: 12px; text-align: center;&quot;&gt;vmware client&lt;br&gt;&lt;br&gt;&lt;/div&gt;&lt;/h1&gt;&lt;p&gt;&lt;br&gt;&lt;/p&gt;" style="text;html=1;whiteSpace=wrap;overflow=hidden;rounded=0;" parent="1" vertex="1">
          <mxGeometry x="733" y="50" width="173" height="88" as="geometry" />
        </mxCell>
        <mxCell id="TO4eEFyR-_5ruXjA75jF-33" value="" style="image;sketch=0;aspect=fixed;html=1;points=[];align=center;fontSize=12;image=img/lib/mscae/Docker.svg;" parent="1" vertex="1">
          <mxGeometry x="912" y="210" width="36" height="29.52" as="geometry" />
        </mxCell>
        <mxCell id="TO4eEFyR-_5ruXjA75jF-34" value="ON PREM INFRASTRUCTURE&amp;nbsp;" style="text;html=1;align=center;verticalAlign=middle;resizable=0;points=[];autosize=1;strokeColor=none;fillColor=none;" parent="1" vertex="1">
          <mxGeometry x="217" y="57" width="191" height="26" as="geometry" />
        </mxCell>
        <mxCell id="TO4eEFyR-_5ruXjA75jF-35" value="Note : VM can be either Windows/Linux" style="text;html=1;align=center;verticalAlign=middle;resizable=0;points=[];autosize=1;strokeColor=none;fillColor=none;" parent="1" vertex="1">
          <mxGeometry x="739" y="339" width="228" height="26" as="geometry" />
        </mxCell>
        <mxCell id="TO4eEFyR-_5ruXjA75jF-41" value="" style="endArrow=classic;html=1;rounded=0;entryX=0;entryY=0.5;entryDx=0;entryDy=0;" parent="1" target="TO4eEFyR-_5ruXjA75jF-26" edge="1">
          <mxGeometry width="50" height="50" relative="1" as="geometry">
            <mxPoint x="620" y="236.5" as="sourcePoint" />
            <mxPoint x="670" y="186.5" as="targetPoint" />
          </mxGeometry>
        </mxCell>
        <mxCell id="TO4eEFyR-_5ruXjA75jF-42" value="&lt;span style=&quot;white-space: pre;&quot;&gt;&#x9;&lt;/span&gt;AZURE CLOUD INFRASTRUCTURE&amp;nbsp;" style="text;html=1;align=center;verticalAlign=middle;resizable=0;points=[];autosize=1;strokeColor=none;fillColor=none;" parent="1" vertex="1">
          <mxGeometry x="177" y="595" width="247" height="26" as="geometry" />
        </mxCell>
        <mxCell id="TO4eEFyR-_5ruXjA75jF-55" value="&lt;span style=&quot;color: rgba(0, 0, 0, 0); font-family: monospace; font-size: 0px; text-align: start;&quot;&gt;%3CmxGraphModel%3E%3Croot%3E%3CmxCell%20id%3D%220%22%2F%3E%3CmxCell%20id%3D%221%22%20parent%3D%220%22%2F%3E%3CmxCell%20id%3D%222%22%20value%3D%22Terraform%22%20style%3D%22rounded%3D1%3BwhiteSpace%3Dwrap%3Bhtml%3D1%3B%22%20vertex%3D%221%22%20parent%3D%221%22%3E%3CmxGeometry%20x%3D%22288%22%20y%3D%22183%22%20width%3D%22120%22%20height%3D%2260%22%20as%3D%22geometry%22%2F%3E%3C%2FmxCell%3E%3CmxCell%20id%3D%223%22%20style%3D%22edgeStyle%3DorthogonalEdgeStyle%3Brounded%3D0%3BorthogonalLoop%3D1%3BjettySize%3Dauto%3Bhtml%3D1%3BlabelBorderColor%3Ddefault%3B%22%20edge%3D%221%22%20source%3D%224%22%20target%3D%2210%22%20parent%3D%221%22%3E%3CmxGeometry%20relative%3D%221%22%20as%3D%22geometry%22%2F%3E%3C%2FmxCell%3E%3CmxCell%20id%3D%224%22%20value%3D%22Ansible%22%20style%3D%22rounded%3D1%3BwhiteSpace%3Dwrap%3Bhtml%3D1%3B%22%20vertex%3D%221%22%20parent%3D%221%22%3E%3CmxGeometry%20x%3D%22288%22%20y%3D%22279%22%20width%3D%22120%22%20height%3D%2260%22%20as%3D%22geometry%22%2F%3E%3C%2FmxCell%3E%3CmxCell%20id%3D%225%22%20style%3D%22edgeStyle%3DorthogonalEdgeStyle%3Brounded%3D0%3BorthogonalLoop%3D1%3BjettySize%3Dauto%3Bhtml%3D1%3BexitX%3D1%3BexitY%3D0.5%3BexitDx%3D0%3BexitDy%3D0%3B%22%20edge%3D%221%22%20source%3D%226%22%20parent%3D%221%22%3E%3CmxGeometry%20relative%3D%221%22%20as%3D%22geometry%22%3E%3CmxPoint%20x%3D%22619.5555555555557%22%20y%3D%22211.5%22%20as%3D%22targetPoint%22%2F%3E%3CmxPoint%20x%3D%22576.0000000000002%22%20y%3D%22211.55555555555566%22%20as%3D%22sourcePoint%22%2F%3E%3CArray%20as%3D%22points%22%3E%3CmxPoint%20x%3D%22608%22%20y%3D%22212%22%2F%3E%3CmxPoint%20x%3D%22608%22%20y%3D%22212%22%2F%3E%3C%2FArray%3E%3C%2FmxGeometry%3E%3C%2FmxCell%3E%3CmxCell%20id%3D%226%22%20value%3D%22%26lt%3Bspan%20style%3D%26quot%3Bcolor%3A%20rgb(36%2C%2036%2C%2036)%3B%20font-family%3A%20source-serif-pro%2C%20Georgia%2C%20Cambria%2C%20%26amp%3Bquot%3BTimes%20New%20Roman%26amp%3Bquot%3B%2C%20Times%2C%20serif%3B%20letter-spacing%3A%20-0.06px%3B%20text-align%3A%20left%3B%20background-color%3A%20rgb(255%2C%20255%2C%20255)%3B%26quot%3B%26gt%3B%26lt%3Bfont%20style%3D%26quot%3Bfont-size%3A%2012px%3B%26quot%3B%26gt%3BvSphere%20tf%20provider%26lt%3B%2Ffont%26gt%3B%26lt%3B%2Fspan%26gt%3B%22%20style%3D%22whiteSpace%3Dwrap%3Bhtml%3D1%3Brounded%3D1%3BarcSize%3D19%3B%22%20vertex%3D%221%22%20parent%3D%221%22%3E%3CmxGeometry%20x%3D%22465%22%20y%3D%22183%22%20width%3D%22101%22%20height%3D%2257%22%20as%3D%22geometry%22%2F%3E%3C%2FmxCell%3E%3CmxCell%20id%3D%227%22%20value%3D%22%22%20style%3D%22endArrow%3Dnone%3Bdashed%3D1%3Bhtml%3D1%3BdashPattern%3D1%203%3BstrokeWidth%3D2%3Brounded%3D0%3BentryX%3D0.004%3BentryY%3D0.398%3BentryDx%3D0%3BentryDy%3D0%3BentryPerimeter%3D0%3BexitX%3D0.991%3BexitY%3D0.419%3BexitDx%3D0%3BexitDy%3D0%3BexitPerimeter%3D0%3B%22%20edge%3D%221%22%20target%3D%222%22%20parent%3D%221%22%3E%3CmxGeometry%20width%3D%2250%22%20height%3D%2250%22%20relative%3D%221%22%20as%3D%22geometry%22%3E%3CmxPoint%20x%3D%22183%22%20y%3D%22239%22%20as%3D%22sourcePoint%22%2F%3E%3CmxPoint%20x%3D%22247%22%20y%3D%22190%22%20as%3D%22targetPoint%22%2F%3E%3C%2FmxGeometry%3E%3C%2FmxCell%3E%3CmxCell%20id%3D%228%22%20value%3D%22%22%20style%3D%22endArrow%3Dnone%3Bdashed%3D1%3Bhtml%3D1%3BdashPattern%3D1%203%3BstrokeWidth%3D2%3Brounded%3D0%3BexitX%3D1.009%3BexitY%3D0.452%3BexitDx%3D0%3BexitDy%3D0%3BexitPerimeter%3D0%3B%22%20edge%3D%221%22%20parent%3D%221%22%3E%3CmxGeometry%20width%3D%2250%22%20height%3D%2250%22%20relative%3D%221%22%20as%3D%22geometry%22%3E%3CmxPoint%20x%3D%22185%22%20y%3D%22245%22%20as%3D%22sourcePoint%22%2F%3E%3CmxPoint%20x%3D%22287%22%20y%3D%22308%22%20as%3D%22targetPoint%22%2F%3E%3C%2FmxGeometry%3E%3C%2FmxCell%3E%3CmxCell%20id%3D%229%22%20value%3D%22%22%20style%3D%22endArrow%3Dnone%3Bdashed%3D1%3Bhtml%3D1%3Brounded%3D0%3BexitX%3D1%3BexitY%3D0.5%3BexitDx%3D0%3BexitDy%3D0%3B%22%20edge%3D%221%22%20source%3D%222%22%20parent%3D%221%22%3E%3CmxGeometry%20width%3D%2250%22%20height%3D%2250%22%20relative%3D%221%22%20as%3D%22geometry%22%3E%3CmxPoint%20x%3D%22479%22%20y%3D%22529%22%20as%3D%22sourcePoint%22%2F%3E%3CmxPoint%20x%3D%22463%22%20y%3D%22213%22%20as%3D%22targetPoint%22%2F%3E%3C%2FmxGeometry%3E%3C%2FmxCell%3E%3CmxCell%20id%3D%2210%22%20value%3D%22java%20app%26lt%3Bbr%26gt%3B%26amp%3Bnbsp%3B%26lt%3Bbr%26gt%3B%26lt%3Bbr%26gt%3Bspring%20cloud%20config%26amp%3Bnbsp%3B%26lt%3Bdiv%26gt%3Bclient%20app%26lt%3B%2Fdiv%26gt%3B%22%20style%3D%22rounded%3D0%3BwhiteSpace%3Dwrap%3Bhtml%3D1%3BfontColor%3Ddefault%3B%22%20vertex%3D%221%22%20parent%3D%221%22%3E%3CmxGeometry%20x%3D%22783%22%20y%3D%22193%22%20width%3D%22175%22%20height%3D%2286%22%20as%3D%22geometry%22%2F%3E%3C%2FmxCell%3E%3CmxCell%20id%3D%2211%22%20value%3D%22%22%20style%3D%22image%3Bsketch%3D0%3Baspect%3Dfixed%3Bhtml%3D1%3Bpoints%3D%5B%5D%3Balign%3Dcenter%3BfontSize%3D12%3Bimage%3Dimg%2Flib%2Fmscae%2FDocker.svg%3B%22%20vertex%3D%221%22%20parent%3D%221%22%3E%3CmxGeometry%20x%3D%22912%22%20y%3D%22210%22%20width%3D%2236%22%20height%3D%2229.52%22%20as%3D%22geometry%22%2F%3E%3C%2FmxCell%3E%3CmxCell%20id%3D%2212%22%20value%3D%22Note%20%3A%20VM%20can%20be%20either%20Windows%2FLinux%22%20style%3D%22text%3Bhtml%3D1%3Balign%3Dcenter%3BverticalAlign%3Dmiddle%3Bresizable%3D0%3Bpoints%3D%5B%5D%3Bautosize%3D1%3BstrokeColor%3Dnone%3BfillColor%3Dnone%3B%22%20vertex%3D%221%22%20parent%3D%221%22%3E%3CmxGeometry%20x%3D%22739%22%20y%3D%22339%22%20width%3D%22228%22%20height%3D%2226%22%20as%3D%22geometry%22%2F%3E%3C%2FmxCell%3E%3CmxCell%20id%3D%2213%22%20value%3D%22%22%20style%3D%22endArrow%3Dclassic%3Bhtml%3D1%3Brounded%3D0%3BentryX%3D0%3BentryY%3D0.5%3BentryDx%3D0%3BentryDy%3D0%3B%22%20edge%3D%221%22%20target%3D%2210%22%20parent%3D%221%22%3E%3CmxGeometry%20width%3D%2250%22%20height%3D%2250%22%20relative%3D%221%22%20as%3D%22geometry%22%3E%3CmxPoint%20x%3D%22620%22%20y%3D%22236.5%22%20as%3D%22sourcePoint%22%2F%3E%3CmxPoint%20x%3D%22670%22%20y%3D%22186.5%22%20as%3D%22targetPoint%22%2F%3E%3C%2FmxGeometry%3E%3C%2FmxCell%3E%3C%2Froot%3E%3C%2FmxGraphModel%&lt;/span&gt;" style="text;html=1;align=center;verticalAlign=middle;resizable=0;points=[];autosize=1;strokeColor=none;fillColor=none;" parent="1" vertex="1">
          <mxGeometry x="266" y="775" width="18" height="26" as="geometry" />
        </mxCell>
        <mxCell id="TO4eEFyR-_5ruXjA75jF-56" value="Terraform" style="rounded=1;whiteSpace=wrap;html=1;" parent="1" vertex="1">
          <mxGeometry x="368" y="690" width="120" height="60" as="geometry" />
        </mxCell>
        <mxCell id="TO4eEFyR-_5ruXjA75jF-57" style="edgeStyle=orthogonalEdgeStyle;rounded=0;orthogonalLoop=1;jettySize=auto;html=1;labelBorderColor=default;" parent="1" source="TO4eEFyR-_5ruXjA75jF-58" target="TO4eEFyR-_5ruXjA75jF-64" edge="1">
          <mxGeometry relative="1" as="geometry" />
        </mxCell>
        <mxCell id="TO4eEFyR-_5ruXjA75jF-58" value="Ansible" style="rounded=1;whiteSpace=wrap;html=1;" parent="1" vertex="1">
          <mxGeometry x="368" y="786" width="120" height="60" as="geometry" />
        </mxCell>
        <mxCell id="TO4eEFyR-_5ruXjA75jF-59" style="edgeStyle=orthogonalEdgeStyle;rounded=0;orthogonalLoop=1;jettySize=auto;html=1;exitX=1;exitY=0.5;exitDx=0;exitDy=0;" parent="1" source="TO4eEFyR-_5ruXjA75jF-60" edge="1">
          <mxGeometry relative="1" as="geometry">
            <mxPoint x="699.5555555555557" y="718.5" as="targetPoint" />
            <mxPoint x="656.0000000000002" y="718.5555555555557" as="sourcePoint" />
            <Array as="points">
              <mxPoint x="688" y="719" />
              <mxPoint x="688" y="719" />
            </Array>
          </mxGeometry>
        </mxCell>
        <mxCell id="TO4eEFyR-_5ruXjA75jF-60" value="&lt;div style=&quot;text-align: left;&quot;&gt;&lt;font face=&quot;source-serif-pro, Georgia, Cambria, Times New Roman, Times, serif&quot; color=&quot;#242424&quot;&gt;&lt;span style=&quot;letter-spacing: -0.06px; background-color: rgb(255, 255, 255);&quot;&gt;Azure tf provider&lt;/span&gt;&lt;/font&gt;&lt;/div&gt;" style="whiteSpace=wrap;html=1;rounded=1;arcSize=19;" parent="1" vertex="1">
          <mxGeometry x="545" y="690" width="101" height="57" as="geometry" />
        </mxCell>
        <mxCell id="TO4eEFyR-_5ruXjA75jF-61" value="" style="endArrow=none;dashed=1;html=1;dashPattern=1 3;strokeWidth=2;rounded=0;entryX=0.004;entryY=0.398;entryDx=0;entryDy=0;entryPerimeter=0;exitX=0.991;exitY=0.419;exitDx=0;exitDy=0;exitPerimeter=0;" parent="1" target="TO4eEFyR-_5ruXjA75jF-56" edge="1">
          <mxGeometry width="50" height="50" relative="1" as="geometry">
            <mxPoint x="263" y="746" as="sourcePoint" />
            <mxPoint x="327" y="697" as="targetPoint" />
          </mxGeometry>
        </mxCell>
        <mxCell id="TO4eEFyR-_5ruXjA75jF-62" value="" style="endArrow=none;dashed=1;html=1;dashPattern=1 3;strokeWidth=2;rounded=0;exitX=1.009;exitY=0.452;exitDx=0;exitDy=0;exitPerimeter=0;" parent="1" edge="1">
          <mxGeometry width="50" height="50" relative="1" as="geometry">
            <mxPoint x="265" y="752" as="sourcePoint" />
            <mxPoint x="367" y="815" as="targetPoint" />
          </mxGeometry>
        </mxCell>
        <mxCell id="TO4eEFyR-_5ruXjA75jF-63" value="" style="endArrow=none;dashed=1;html=1;rounded=0;exitX=1;exitY=0.5;exitDx=0;exitDy=0;" parent="1" source="TO4eEFyR-_5ruXjA75jF-56" edge="1">
          <mxGeometry width="50" height="50" relative="1" as="geometry">
            <mxPoint x="559" y="1036" as="sourcePoint" />
            <mxPoint x="543" y="720" as="targetPoint" />
          </mxGeometry>
        </mxCell>
        <mxCell id="TO4eEFyR-_5ruXjA75jF-64" value="java app&lt;br&gt;&amp;nbsp;&lt;br&gt;&lt;br&gt;spring cloud config&amp;nbsp;&lt;div&gt;client app&lt;/div&gt;" style="rounded=0;whiteSpace=wrap;html=1;fontColor=default;" parent="1" vertex="1">
          <mxGeometry x="863" y="700" width="175" height="86" as="geometry" />
        </mxCell>
        <mxCell id="TO4eEFyR-_5ruXjA75jF-65" value="" style="image;sketch=0;aspect=fixed;html=1;points=[];align=center;fontSize=12;image=img/lib/mscae/Docker.svg;" parent="1" vertex="1">
          <mxGeometry x="992" y="717" width="36" height="29.52" as="geometry" />
        </mxCell>
        <mxCell id="TO4eEFyR-_5ruXjA75jF-66" value="Note : VM can be either Windows/Linux" style="text;html=1;align=center;verticalAlign=middle;resizable=0;points=[];autosize=1;strokeColor=none;fillColor=none;" parent="1" vertex="1">
          <mxGeometry x="819" y="846" width="228" height="26" as="geometry" />
        </mxCell>
        <mxCell id="TO4eEFyR-_5ruXjA75jF-67" value="" style="endArrow=classic;html=1;rounded=0;entryX=0;entryY=0.5;entryDx=0;entryDy=0;" parent="1" target="TO4eEFyR-_5ruXjA75jF-64" edge="1">
          <mxGeometry width="50" height="50" relative="1" as="geometry">
            <mxPoint x="700" y="743.5" as="sourcePoint" />
            <mxPoint x="750" y="693.5" as="targetPoint" />
          </mxGeometry>
        </mxCell>
        <mxCell id="TO4eEFyR-_5ruXjA75jF-68" value="Azure DevOps&lt;br&gt;Repo &amp;amp;&lt;div&gt;Pipelines&lt;/div&gt;" style="rounded=0;whiteSpace=wrap;html=1;" parent="1" vertex="1">
          <mxGeometry x="134" y="668" width="127" height="172" as="geometry" />
        </mxCell>
        <mxCell id="TO4eEFyR-_5ruXjA75jF-69" value="" style="image;sketch=0;aspect=fixed;html=1;points=[];align=center;fontSize=12;image=img/lib/mscae/Azure_DevOps.svg;" parent="1" vertex="1">
          <mxGeometry x="87" y="177" width="50" height="50" as="geometry" />
        </mxCell>
        <mxCell id="TO4eEFyR-_5ruXjA75jF-70" value="" style="image;sketch=0;aspect=fixed;html=1;points=[];align=center;fontSize=12;image=img/lib/mscae/Azure_DevOps.svg;" parent="1" vertex="1">
          <mxGeometry x="163" y="683" width="50" height="50" as="geometry" />
        </mxCell>
        <mxCell id="TO4eEFyR-_5ruXjA75jF-72" value="" style="verticalLabelPosition=bottom;html=1;verticalAlign=top;align=center;strokeColor=none;fillColor=#00BEF2;shape=mxgraph.azure.cloud;" parent="1" vertex="1">
          <mxGeometry x="890" y="570" width="94" height="51" as="geometry" />
        </mxCell>
        <mxCell id="TO4eEFyR-_5ruXjA75jF-74" value="" style="image;aspect=fixed;html=1;points=[];align=center;fontSize=12;image=img/lib/azure2/compute/VM_Scale_Sets.svg;" parent="1" vertex="1">
          <mxGeometry x="1047" y="705" width="54" height="54" as="geometry" />
        </mxCell>
        <mxCell id="TO4eEFyR-_5ruXjA75jF-76" value="" style="shadow=0;dashed=0;html=1;strokeColor=none;fillColor=#EF8F21;labelPosition=center;verticalLabelPosition=bottom;verticalAlign=top;align=center;outlineConnect=0;shape=mxgraph.veeam.vsphere" parent="1" vertex="1">
          <mxGeometry x="840" y="83" width="37" height="30" as="geometry" />
        </mxCell>
        <mxCell id="TO4eEFyR-_5ruXjA75jF-77" value="VMSS" style="text;html=1;align=center;verticalAlign=middle;whiteSpace=wrap;rounded=0;" parent="1" vertex="1">
          <mxGeometry x="916" y="670" width="60" height="30" as="geometry" />
        </mxCell>
        <mxCell id="TO4eEFyR-_5ruXjA75jF-79" value="DATA CENTER" style="text;html=1;align=center;verticalAlign=middle;whiteSpace=wrap;rounded=0;" parent="1" vertex="1">
          <mxGeometry x="972" y="57" width="133" height="30" as="geometry" />
        </mxCell>
        <mxCell id="TO4eEFyR-_5ruXjA75jF-80" value="VM" style="text;html=1;align=center;verticalAlign=middle;whiteSpace=wrap;rounded=0;" parent="1" vertex="1">
          <mxGeometry x="836" y="163" width="60" height="30" as="geometry" />
        </mxCell>
        <mxCell id="TO4eEFyR-_5ruXjA75jF-83" style="edgeStyle=orthogonalEdgeStyle;rounded=0;orthogonalLoop=1;jettySize=auto;html=1;entryX=0;entryY=0.5;entryDx=0;entryDy=0;" parent="1" source="TO4eEFyR-_5ruXjA75jF-81" target="TO4eEFyR-_5ruXjA75jF-82" edge="1">
          <mxGeometry relative="1" as="geometry" />
        </mxCell>
        <mxCell id="TO4eEFyR-_5ruXjA75jF-81" value="Azure pipleline&amp;nbsp;" style="rounded=0;whiteSpace=wrap;html=1;" parent="1" vertex="1">
          <mxGeometry x="206" y="1095" width="120" height="60" as="geometry" />
        </mxCell>
        <mxCell id="TO4eEFyR-_5ruXjA75jF-84" style="edgeStyle=orthogonalEdgeStyle;rounded=0;orthogonalLoop=1;jettySize=auto;html=1;" parent="1" source="TO4eEFyR-_5ruXjA75jF-82" edge="1">
          <mxGeometry relative="1" as="geometry">
            <mxPoint x="547.3333333333333" y="1125" as="targetPoint" />
          </mxGeometry>
        </mxCell>
        <mxCell id="TO4eEFyR-_5ruXjA75jF-82" value="deploy-app.sh" style="rounded=0;whiteSpace=wrap;html=1;" parent="1" vertex="1">
          <mxGeometry x="379" y="1095" width="120" height="60" as="geometry" />
        </mxCell>
        <mxCell id="TO4eEFyR-_5ruXjA75jF-89" style="edgeStyle=orthogonalEdgeStyle;rounded=0;orthogonalLoop=1;jettySize=auto;html=1;entryX=0;entryY=0.5;entryDx=0;entryDy=0;" parent="1" source="TO4eEFyR-_5ruXjA75jF-85" target="TO4eEFyR-_5ruXjA75jF-86" edge="1">
          <mxGeometry relative="1" as="geometry" />
        </mxCell>
        <mxCell id="TO4eEFyR-_5ruXjA75jF-90" style="edgeStyle=orthogonalEdgeStyle;rounded=0;orthogonalLoop=1;jettySize=auto;html=1;entryX=0;entryY=0.5;entryDx=0;entryDy=0;" parent="1" target="TO4eEFyR-_5ruXjA75jF-87" edge="1">
          <mxGeometry relative="1" as="geometry">
            <mxPoint x="659" y="1138" as="sourcePoint" />
            <mxPoint x="899" y="1141" as="targetPoint" />
          </mxGeometry>
        </mxCell>
        <mxCell id="TO4eEFyR-_5ruXjA75jF-85" value="Ansible playbook" style="rounded=0;whiteSpace=wrap;html=1;" parent="1" vertex="1">
          <mxGeometry x="545" y="1092" width="120" height="60" as="geometry" />
        </mxCell>
        <mxCell id="TO4eEFyR-_5ruXjA75jF-86" value="terraform&amp;nbsp;" style="rounded=0;whiteSpace=wrap;html=1;" parent="1" vertex="1">
          <mxGeometry x="815" y="1035" width="120" height="60" as="geometry" />
        </mxCell>
        <mxCell id="TO4eEFyR-_5ruXjA75jF-87" value="VM" style="rounded=0;whiteSpace=wrap;html=1;" parent="1" vertex="1">
          <mxGeometry x="819" y="1149" width="120" height="60" as="geometry" />
        </mxCell>
        <mxCell id="TO4eEFyR-_5ruXjA75jF-147" style="edgeStyle=orthogonalEdgeStyle;rounded=0;orthogonalLoop=1;jettySize=auto;html=1;dashed=1;" parent="1" source="TO4eEFyR-_5ruXjA75jF-93" target="TO4eEFyR-_5ruXjA75jF-108" edge="1">
          <mxGeometry relative="1" as="geometry" />
        </mxCell>
        <mxCell id="TO4eEFyR-_5ruXjA75jF-196" value="Metrics" style="edgeLabel;html=1;align=center;verticalAlign=middle;resizable=0;points=[];" parent="TO4eEFyR-_5ruXjA75jF-147" vertex="1" connectable="0">
          <mxGeometry x="-0.3285" y="-3" relative="1" as="geometry">
            <mxPoint y="1" as="offset" />
          </mxGeometry>
        </mxCell>
        <mxCell id="TO4eEFyR-_5ruXjA75jF-93" value="" style="image;aspect=fixed;html=1;points=[];align=center;fontSize=12;image=img/lib/azure2/app_services/CDN_Profiles.svg;" parent="1" vertex="1">
          <mxGeometry x="266.5" y="1456" width="69.7" height="41" as="geometry" />
        </mxCell>
        <mxCell id="TO4eEFyR-_5ruXjA75jF-96" value="Azure CDN" style="text;html=1;align=center;verticalAlign=middle;resizable=0;points=[];autosize=1;strokeColor=none;fillColor=none;" parent="1" vertex="1">
          <mxGeometry x="284" y="1425" width="79" height="26" as="geometry" />
        </mxCell>
        <mxCell id="TO4eEFyR-_5ruXjA75jF-97" value="" style="image;aspect=fixed;html=1;points=[];align=center;fontSize=12;image=img/lib/azure2/networking/Web_Application_Firewall_Policies_WAF.svg;" parent="1" vertex="1">
          <mxGeometry x="442" y="1446" width="54" height="54" as="geometry" />
        </mxCell>
        <mxCell id="TO4eEFyR-_5ruXjA75jF-98" value="" style="verticalLabelPosition=bottom;html=1;verticalAlign=top;align=center;strokeColor=none;fillColor=#00BEF2;shape=mxgraph.azure.azure_load_balancer;" parent="1" vertex="1">
          <mxGeometry x="615" y="1455.5" width="50" height="35" as="geometry" />
        </mxCell>
        <mxCell id="TO4eEFyR-_5ruXjA75jF-100" value="" style="image;aspect=fixed;html=1;points=[];align=center;fontSize=12;image=img/lib/azure2/compute/VM_Scale_Sets.svg;" parent="1" vertex="1">
          <mxGeometry x="763" y="1439" width="68" height="68" as="geometry" />
        </mxCell>
        <mxCell id="TO4eEFyR-_5ruXjA75jF-103" value="" style="image;aspect=fixed;html=1;points=[];align=center;fontSize=12;image=img/lib/azure2/databases/Azure_Database_PostgreSQL_Server.svg;" parent="1" vertex="1">
          <mxGeometry x="1053" y="1468" width="48" height="64" as="geometry" />
        </mxCell>
        <mxCell id="TO4eEFyR-_5ruXjA75jF-104" style="edgeStyle=orthogonalEdgeStyle;rounded=0;orthogonalLoop=1;jettySize=auto;html=1;entryX=-0.025;entryY=0.572;entryDx=0;entryDy=0;entryPerimeter=0;" parent="1" source="TO4eEFyR-_5ruXjA75jF-93" target="TO4eEFyR-_5ruXjA75jF-97" edge="1">
          <mxGeometry relative="1" as="geometry" />
        </mxCell>
        <mxCell id="TO4eEFyR-_5ruXjA75jF-105" style="edgeStyle=orthogonalEdgeStyle;rounded=0;orthogonalLoop=1;jettySize=auto;html=1;entryX=0.05;entryY=0.5;entryDx=0;entryDy=0;entryPerimeter=0;" parent="1" source="TO4eEFyR-_5ruXjA75jF-97" target="TO4eEFyR-_5ruXjA75jF-98" edge="1">
          <mxGeometry relative="1" as="geometry" />
        </mxCell>
        <mxCell id="TO4eEFyR-_5ruXjA75jF-106" style="edgeStyle=orthogonalEdgeStyle;rounded=0;orthogonalLoop=1;jettySize=auto;html=1;entryX=-0.034;entryY=0.966;entryDx=0;entryDy=0;entryPerimeter=0;" parent="1" source="TO4eEFyR-_5ruXjA75jF-98" target="TO4eEFyR-_5ruXjA75jF-100" edge="1">
          <mxGeometry relative="1" as="geometry" />
        </mxCell>
        <mxCell id="TO4eEFyR-_5ruXjA75jF-107" style="edgeStyle=orthogonalEdgeStyle;rounded=0;orthogonalLoop=1;jettySize=auto;html=1;entryX=-0.005;entryY=0.613;entryDx=0;entryDy=0;entryPerimeter=0;" parent="1" source="TO4eEFyR-_5ruXjA75jF-101" target="TO4eEFyR-_5ruXjA75jF-103" edge="1">
          <mxGeometry relative="1" as="geometry" />
        </mxCell>
        <mxCell id="TO4eEFyR-_5ruXjA75jF-108" value="" style="image;aspect=fixed;html=1;points=[];align=center;fontSize=12;image=img/lib/azure2/management_governance/Monitor.svg;" parent="1" vertex="1">
          <mxGeometry x="315" y="1723.5" width="64" height="64" as="geometry" />
        </mxCell>
        <mxCell id="TO4eEFyR-_5ruXjA75jF-109" value="" style="verticalLabelPosition=bottom;html=1;verticalAlign=top;align=center;strokeColor=none;fillColor=#00BEF2;shape=mxgraph.azure.azure_alert;" parent="1" vertex="1">
          <mxGeometry x="1057.43" y="2007" width="58" height="65" as="geometry" />
        </mxCell>
        <mxCell id="TO4eEFyR-_5ruXjA75jF-115" value="&lt;div&gt;&lt;br class=&quot;Apple-interchange-newline&quot;&gt;&lt;br&gt;&lt;/div&gt;&lt;div&gt;&lt;b&gt;webapp&lt;/b&gt;&lt;/div&gt;" style="text;html=1;align=center;verticalAlign=middle;whiteSpace=wrap;rounded=0;" parent="1" vertex="1">
          <mxGeometry x="819" y="1515" width="60" height="43" as="geometry" />
        </mxCell>
        <mxCell id="TO4eEFyR-_5ruXjA75jF-116" value="" style="image;aspect=fixed;html=1;points=[];align=center;fontSize=12;image=img/lib/azure2/other/Azure_Monitor_Dashboard.svg;" parent="1" vertex="1">
          <mxGeometry x="646" y="2012" width="68" height="63.2" as="geometry" />
        </mxCell>
        <mxCell id="TO4eEFyR-_5ruXjA75jF-117" value="" style="image;aspect=fixed;html=1;points=[];align=center;fontSize=12;image=img/lib/azure2/devops/Application_Insights.svg;" parent="1" vertex="1">
          <mxGeometry x="1026" y="1702" width="31.43" height="45" as="geometry" />
        </mxCell>
        <mxCell id="TO4eEFyR-_5ruXjA75jF-118" value="" style="sketch=0;outlineConnect=0;fontColor=#232F3E;gradientColor=none;fillColor=#232F3D;strokeColor=none;dashed=0;verticalLabelPosition=bottom;verticalAlign=top;align=center;html=1;fontSize=12;fontStyle=0;aspect=fixed;pointerEvents=1;shape=mxgraph.aws4.authenticated_user;" parent="1" vertex="1">
          <mxGeometry x="119" y="1451" width="52" height="52" as="geometry" />
        </mxCell>
        <mxCell id="TO4eEFyR-_5ruXjA75jF-119" style="edgeStyle=orthogonalEdgeStyle;rounded=0;orthogonalLoop=1;jettySize=auto;html=1;entryX=0.061;entryY=0.522;entryDx=0;entryDy=0;entryPerimeter=0;" parent="1" source="TO4eEFyR-_5ruXjA75jF-118" target="TO4eEFyR-_5ruXjA75jF-93" edge="1">
          <mxGeometry relative="1" as="geometry" />
        </mxCell>
        <mxCell id="TO4eEFyR-_5ruXjA75jF-123" style="edgeStyle=orthogonalEdgeStyle;rounded=0;orthogonalLoop=1;jettySize=auto;html=1;entryX=0.468;entryY=-0.056;entryDx=0;entryDy=0;entryPerimeter=0;exitX=0.75;exitY=1;exitDx=0;exitDy=0;" parent="1" source="TO4eEFyR-_5ruXjA75jF-115" target="TO4eEFyR-_5ruXjA75jF-122" edge="1">
          <mxGeometry relative="1" as="geometry" />
        </mxCell>
        <mxCell id="TO4eEFyR-_5ruXjA75jF-124" value="App logs" style="text;html=1;align=center;verticalAlign=middle;resizable=0;points=[];autosize=1;strokeColor=none;fillColor=none;" parent="1" vertex="1">
          <mxGeometry x="1120" y="1645" width="65" height="26" as="geometry" />
        </mxCell>
        <mxCell id="TO4eEFyR-_5ruXjA75jF-126" value="&lt;div style=&quot;text-align: center;&quot;&gt;&lt;span style=&quot;background-color: initial; text-wrap: nowrap;&quot;&gt;&lt;font style=&quot;font-size: 14px;&quot;&gt;firewall&lt;/font&gt;&lt;/span&gt;&lt;/div&gt;" style="text;whiteSpace=wrap;html=1;" parent="1" vertex="1">
          <mxGeometry x="438.9966666666665" y="1419.9955555555557" width="89" height="36" as="geometry" />
        </mxCell>
        <mxCell id="TO4eEFyR-_5ruXjA75jF-130" value="&lt;b&gt;Alerts&lt;/b&gt;" style="text;html=1;align=center;verticalAlign=middle;resizable=0;points=[];autosize=1;strokeColor=none;fillColor=none;" parent="1" vertex="1">
          <mxGeometry x="1078" y="2096" width="52" height="26" as="geometry" />
        </mxCell>
        <mxCell id="TO4eEFyR-_5ruXjA75jF-131" value="" style="image;aspect=fixed;html=1;points=[];align=center;fontSize=12;image=img/lib/azure2/analytics/Log_Analytics_Workspaces.svg;" parent="1" vertex="1">
          <mxGeometry x="543" y="1720" width="64" height="64" as="geometry" />
        </mxCell>
        <mxCell id="TO4eEFyR-_5ruXjA75jF-132" value="DB" style="text;html=1;align=center;verticalAlign=middle;resizable=0;points=[];autosize=1;strokeColor=none;fillColor=none;" parent="1" vertex="1">
          <mxGeometry x="1055" y="1437" width="35" height="26" as="geometry" />
        </mxCell>
        <mxCell id="TO4eEFyR-_5ruXjA75jF-133" value="Loadbalancer" style="text;html=1;align=center;verticalAlign=middle;resizable=0;points=[];autosize=1;strokeColor=none;fillColor=none;" parent="1" vertex="1">
          <mxGeometry x="597" y="1429.5" width="91" height="26" as="geometry" />
        </mxCell>
        <mxCell id="TO4eEFyR-_5ruXjA75jF-141" value="" style="verticalLabelPosition=bottom;html=1;verticalAlign=top;align=center;strokeColor=none;fillColor=#00BEF2;shape=mxgraph.azure.cloud;" parent="1" vertex="1">
          <mxGeometry x="1332" y="1323" width="120" height="71" as="geometry" />
        </mxCell>
        <mxCell id="TO4eEFyR-_5ruXjA75jF-148" style="edgeStyle=orthogonalEdgeStyle;rounded=0;orthogonalLoop=1;jettySize=auto;html=1;entryX=0.21;entryY=0.423;entryDx=0;entryDy=0;entryPerimeter=0;dashed=1;" parent="1" source="TO4eEFyR-_5ruXjA75jF-97" edge="1">
          <mxGeometry relative="1" as="geometry">
            <mxPoint x="373.12000000000035" y="1718.8520000000003" as="targetPoint" />
          </mxGeometry>
        </mxCell>
        <mxCell id="TO4eEFyR-_5ruXjA75jF-150" style="edgeStyle=orthogonalEdgeStyle;rounded=0;orthogonalLoop=1;jettySize=auto;html=1;entryX=0.809;entryY=0.003;entryDx=0;entryDy=0;entryPerimeter=0;dashed=1;" parent="1" source="TO4eEFyR-_5ruXjA75jF-98" target="TO4eEFyR-_5ruXjA75jF-135" edge="1">
          <mxGeometry relative="1" as="geometry">
            <Array as="points">
              <mxPoint x="640" y="1518" />
              <mxPoint x="452" y="1518" />
            </Array>
          </mxGeometry>
        </mxCell>
        <mxCell id="TO4eEFyR-_5ruXjA75jF-151" style="edgeStyle=orthogonalEdgeStyle;rounded=0;orthogonalLoop=1;jettySize=auto;html=1;exitX=0;exitY=0.75;exitDx=0;exitDy=0;entryX=0.947;entryY=0.003;entryDx=0;entryDy=0;entryPerimeter=0;dashed=1;" parent="1" source="TO4eEFyR-_5ruXjA75jF-101" target="TO4eEFyR-_5ruXjA75jF-135" edge="1">
          <mxGeometry relative="1" as="geometry" />
        </mxCell>
        <mxCell id="TO4eEFyR-_5ruXjA75jF-152" style="edgeStyle=orthogonalEdgeStyle;rounded=0;orthogonalLoop=1;jettySize=auto;html=1;entryX=1;entryY=0.1;entryDx=0;entryDy=0;entryPerimeter=0;" parent="1" source="TO4eEFyR-_5ruXjA75jF-103" target="TO4eEFyR-_5ruXjA75jF-135" edge="1">
          <mxGeometry relative="1" as="geometry">
            <Array as="points">
              <mxPoint x="1077" y="1654" />
              <mxPoint x="769" y="1654" />
              <mxPoint x="769" y="1678" />
              <mxPoint x="515" y="1678" />
              <mxPoint x="515" y="1737" />
            </Array>
          </mxGeometry>
        </mxCell>
        <mxCell id="TO4eEFyR-_5ruXjA75jF-154" value="" style="endArrow=classic;html=1;rounded=0;exitX=0.171;exitY=0.188;exitDx=0;exitDy=0;exitPerimeter=0;" parent="1" target="TO4eEFyR-_5ruXjA75jF-125" edge="1">
          <mxGeometry width="50" height="50" relative="1" as="geometry">
            <mxPoint x="319.6120000000001" y="1501.712" as="sourcePoint" />
            <mxPoint x="795" y="1754" as="targetPoint" />
          </mxGeometry>
        </mxCell>
        <mxCell id="TO4eEFyR-_5ruXjA75jF-195" value="Diagnostics settings" style="edgeLabel;html=1;align=center;verticalAlign=middle;resizable=0;points=[];" parent="TO4eEFyR-_5ruXjA75jF-154" vertex="1" connectable="0">
          <mxGeometry x="0.2772" y="5" relative="1" as="geometry">
            <mxPoint x="89" y="-14" as="offset" />
          </mxGeometry>
        </mxCell>
        <mxCell id="TO4eEFyR-_5ruXjA75jF-155" value="" style="endArrow=classic;html=1;rounded=0;exitX=0.984;exitY=1.004;exitDx=0;exitDy=0;exitPerimeter=0;" parent="1" source="TO4eEFyR-_5ruXjA75jF-97" target="TO4eEFyR-_5ruXjA75jF-125" edge="1">
          <mxGeometry width="50" height="50" relative="1" as="geometry">
            <mxPoint x="745" y="1804" as="sourcePoint" />
            <mxPoint x="795" y="1754" as="targetPoint" />
          </mxGeometry>
        </mxCell>
        <mxCell id="TO4eEFyR-_5ruXjA75jF-156" value="" style="endArrow=classic;html=1;rounded=0;exitX=0.691;exitY=0.992;exitDx=0;exitDy=0;exitPerimeter=0;" parent="1" source="TO4eEFyR-_5ruXjA75jF-98" target="TO4eEFyR-_5ruXjA75jF-125" edge="1">
          <mxGeometry width="50" height="50" relative="1" as="geometry">
            <mxPoint x="817" y="1827" as="sourcePoint" />
            <mxPoint x="867" y="1777" as="targetPoint" />
          </mxGeometry>
        </mxCell>
        <mxCell id="TO4eEFyR-_5ruXjA75jF-157" value="" style="endArrow=classic;html=1;rounded=0;exitX=0.163;exitY=0.998;exitDx=0;exitDy=0;exitPerimeter=0;" parent="1" source="TO4eEFyR-_5ruXjA75jF-101" target="TO4eEFyR-_5ruXjA75jF-125" edge="1">
          <mxGeometry width="50" height="50" relative="1" as="geometry">
            <mxPoint x="817" y="1827" as="sourcePoint" />
            <mxPoint x="867" y="1777" as="targetPoint" />
          </mxGeometry>
        </mxCell>
        <mxCell id="TO4eEFyR-_5ruXjA75jF-165" style="edgeStyle=orthogonalEdgeStyle;rounded=0;orthogonalLoop=1;jettySize=auto;html=1;entryX=0.446;entryY=0.995;entryDx=0;entryDy=0;entryPerimeter=0;" parent="1" source="TO4eEFyR-_5ruXjA75jF-129" target="TO4eEFyR-_5ruXjA75jF-125" edge="1">
          <mxGeometry relative="1" as="geometry" />
        </mxCell>
        <mxCell id="TO4eEFyR-_5ruXjA75jF-166" value="fetch" style="edgeLabel;html=1;align=center;verticalAlign=middle;resizable=0;points=[];" parent="TO4eEFyR-_5ruXjA75jF-165" vertex="1" connectable="0">
          <mxGeometry x="-0.6903" y="-4" relative="1" as="geometry">
            <mxPoint as="offset" />
          </mxGeometry>
        </mxCell>
        <mxCell id="TO4eEFyR-_5ruXjA75jF-181" value="" style="edgeStyle=orthogonalEdgeStyle;rounded=0;orthogonalLoop=1;jettySize=auto;html=1;exitX=1;exitY=0.5;exitDx=0;exitDy=0;" parent="1" source="TO4eEFyR-_5ruXjA75jF-174" target="TO4eEFyR-_5ruXjA75jF-180" edge="1">
          <mxGeometry relative="1" as="geometry">
            <Array as="points">
              <mxPoint x="1319" y="2409" />
              <mxPoint x="1319" y="2509" />
              <mxPoint x="1161" y="2509" />
            </Array>
          </mxGeometry>
        </mxCell>
        <mxCell id="TO4eEFyR-_5ruXjA75jF-190" style="edgeStyle=orthogonalEdgeStyle;rounded=0;orthogonalLoop=1;jettySize=auto;html=1;entryX=0.5;entryY=0;entryDx=0;entryDy=0;" parent="1" source="TO4eEFyR-_5ruXjA75jF-174" target="TO4eEFyR-_5ruXjA75jF-183" edge="1">
          <mxGeometry relative="1" as="geometry">
            <Array as="points">
              <mxPoint x="1077" y="2539" />
            </Array>
          </mxGeometry>
        </mxCell>
        <mxCell id="TO4eEFyR-_5ruXjA75jF-174" value="&lt;b&gt;&lt;font style=&quot;font-size: 22px;&quot;&gt;Opsgenie&lt;/font&gt;&lt;/b&gt;" style="rounded=1;whiteSpace=wrap;html=1;fillColor=#dae8fc;strokeColor=#6c8ebf;" parent="1" vertex="1">
          <mxGeometry x="1063" y="2372" width="222.78" height="74.5" as="geometry" />
        </mxCell>
        <mxCell id="TO4eEFyR-_5ruXjA75jF-175" value="JIRA" style="rounded=1;whiteSpace=wrap;html=1;" parent="1" vertex="1">
          <mxGeometry x="776.0022222222221" y="2379.25" width="120" height="60" as="geometry" />
        </mxCell>
        <mxCell id="TO4eEFyR-_5ruXjA75jF-179" value="" style="endArrow=classic;startArrow=classic;html=1;rounded=0;exitX=0;exitY=0.5;exitDx=0;exitDy=0;entryX=0.376;entryY=1.007;entryDx=0;entryDy=0;entryPerimeter=0;" parent="1" source="TO4eEFyR-_5ruXjA75jF-174" edge="1">
          <mxGeometry width="50" height="50" relative="1" as="geometry">
            <mxPoint x="1137.88" y="2379.25" as="sourcePoint" />
            <mxPoint x="896.0022222222223" y="2409.67" as="targetPoint" />
          </mxGeometry>
        </mxCell>
        <mxCell id="TO4eEFyR-_5ruXjA75jF-180" value="EMAIL&#39;s ,&lt;div&gt;MSTEAMS channel&lt;/div&gt;" style="whiteSpace=wrap;html=1;rounded=1;" parent="1" vertex="1">
          <mxGeometry x="1101" y="2548" width="123" height="77.5" as="geometry" />
        </mxCell>
        <mxCell id="TO4eEFyR-_5ruXjA75jF-192" style="edgeStyle=orthogonalEdgeStyle;rounded=0;orthogonalLoop=1;jettySize=auto;html=1;exitX=0.25;exitY=1;exitDx=0;exitDy=0;" parent="1" source="TO4eEFyR-_5ruXjA75jF-183" edge="1">
          <mxGeometry relative="1" as="geometry">
            <mxPoint x="895.6153846153843" y="2631.461538461538" as="targetPoint" />
          </mxGeometry>
        </mxCell>
        <mxCell id="TO4eEFyR-_5ruXjA75jF-183" value="Phone calls&amp;nbsp;" style="whiteSpace=wrap;html=1;rounded=1;" parent="1" vertex="1">
          <mxGeometry x="864" y="2548" width="120" height="78" as="geometry" />
        </mxCell>
        <mxCell id="TO4eEFyR-_5ruXjA75jF-188" style="edgeStyle=orthogonalEdgeStyle;rounded=0;orthogonalLoop=1;jettySize=auto;html=1;entryX=0.322;entryY=1.003;entryDx=0;entryDy=0;entryPerimeter=0;" parent="1" source="TO4eEFyR-_5ruXjA75jF-136" target="TO4eEFyR-_5ruXjA75jF-135" edge="1">
          <mxGeometry relative="1" as="geometry">
            <Array as="points">
              <mxPoint x="1131" y="2195" />
              <mxPoint x="369" y="2195" />
            </Array>
          </mxGeometry>
        </mxCell>
        <mxCell id="TO4eEFyR-_5ruXjA75jF-191" value="P0, P1 issues" style="text;html=1;align=center;verticalAlign=middle;resizable=0;points=[];autosize=1;strokeColor=none;fillColor=none;" parent="1" vertex="1">
          <mxGeometry x="958" y="2491" width="91" height="26" as="geometry" />
        </mxCell>
        <mxCell id="TO4eEFyR-_5ruXjA75jF-194" value="&lt;h4&gt;&lt;b&gt;&lt;font style=&quot;font-size: 20px;&quot;&gt;AZURE&lt;/font&gt;&lt;/b&gt;&lt;/h4&gt;" style="text;html=1;align=center;verticalAlign=middle;whiteSpace=wrap;rounded=0;" parent="1" vertex="1">
          <mxGeometry x="1347" y="1404" width="60" height="30" as="geometry" />
        </mxCell>
        <mxCell id="TO4eEFyR-_5ruXjA75jF-672" style="edgeStyle=orthogonalEdgeStyle;rounded=0;orthogonalLoop=1;jettySize=auto;html=1;" parent="1" source="TO4eEFyR-_5ruXjA75jF-594" edge="1">
          <mxGeometry relative="1" as="geometry">
            <mxPoint x="1669" y="3488" as="targetPoint" />
            <Array as="points">
              <mxPoint x="438" y="3546" />
              <mxPoint x="1670" y="3546" />
              <mxPoint x="1670" y="3488" />
            </Array>
          </mxGeometry>
        </mxCell>
        <mxCell id="TO4eEFyR-_5ruXjA75jF-673" style="edgeStyle=orthogonalEdgeStyle;rounded=0;orthogonalLoop=1;jettySize=auto;html=1;entryX=0.25;entryY=1;entryDx=0;entryDy=0;" parent="1" source="TO4eEFyR-_5ruXjA75jF-594" target="TO4eEFyR-_5ruXjA75jF-655" edge="1">
          <mxGeometry relative="1" as="geometry">
            <Array as="points">
              <mxPoint x="438" y="3604" />
              <mxPoint x="972" y="3604" />
              <mxPoint x="972" y="3573" />
              <mxPoint x="1466" y="3573" />
            </Array>
          </mxGeometry>
        </mxCell>
        <mxCell id="TO4eEFyR-_5ruXjA75jF-594" value="&lt;b&gt;Azure Monitor&lt;/b&gt;&lt;div&gt;&lt;b&gt;Metrics logs&lt;/b&gt;&lt;/div&gt;" style="rounded=0;whiteSpace=wrap;html=1;" parent="1" vertex="1">
          <mxGeometry x="354" y="3183" width="169" height="149" as="geometry" />
        </mxCell>
        <mxCell id="TO4eEFyR-_5ruXjA75jF-657" style="edgeStyle=orthogonalEdgeStyle;rounded=0;orthogonalLoop=1;jettySize=auto;html=1;" parent="1" source="TO4eEFyR-_5ruXjA75jF-597" target="TO4eEFyR-_5ruXjA75jF-656" edge="1">
          <mxGeometry relative="1" as="geometry" />
        </mxCell>
        <mxCell id="TO4eEFyR-_5ruXjA75jF-661" style="edgeStyle=orthogonalEdgeStyle;rounded=0;orthogonalLoop=1;jettySize=auto;html=1;entryX=0;entryY=0.5;entryDx=0;entryDy=0;" parent="1" source="TO4eEFyR-_5ruXjA75jF-597" target="TO4eEFyR-_5ruXjA75jF-655" edge="1">
          <mxGeometry relative="1" as="geometry" />
        </mxCell>
        <mxCell id="TO4eEFyR-_5ruXjA75jF-678" style="edgeStyle=orthogonalEdgeStyle;rounded=0;orthogonalLoop=1;jettySize=auto;html=1;entryX=0.75;entryY=0;entryDx=0;entryDy=0;" parent="1" source="TO4eEFyR-_5ruXjA75jF-597" target="TO4eEFyR-_5ruXjA75jF-677" edge="1">
          <mxGeometry relative="1" as="geometry">
            <mxPoint x="886" y="3202" as="sourcePoint" />
            <mxPoint x="1739" y="3172.97" as="targetPoint" />
            <Array as="points">
              <mxPoint x="854" y="3157" />
              <mxPoint x="1760" y="3157" />
            </Array>
          </mxGeometry>
        </mxCell>
        <mxCell id="TO4eEFyR-_5ruXjA75jF-597" value="&lt;b&gt;EventHub&lt;/b&gt;&lt;div&gt;&lt;b&gt;(Audit , Activity, resource ,entra id logs)&amp;nbsp;&lt;/b&gt;&lt;/div&gt;" style="rounded=1;whiteSpace=wrap;html=1;" parent="1" vertex="1">
          <mxGeometry x="584" y="3180" width="297" height="152" as="geometry" />
        </mxCell>
        <mxCell id="TO4eEFyR-_5ruXjA75jF-599" value="" style="rounded=0;whiteSpace=wrap;html=1;" parent="1" vertex="1">
          <mxGeometry x="801" y="2892.5" width="241" height="181.5" as="geometry" />
        </mxCell>
        <mxCell id="TO4eEFyR-_5ruXjA75jF-600" style="edgeStyle=orthogonalEdgeStyle;rounded=0;orthogonalLoop=1;jettySize=auto;html=1;dashed=1;" parent="1" source="TO4eEFyR-_5ruXjA75jF-602" target="TO4eEFyR-_5ruXjA75jF-612" edge="1">
          <mxGeometry relative="1" as="geometry" />
        </mxCell>
        <mxCell id="TO4eEFyR-_5ruXjA75jF-601" value="Metrics" style="edgeLabel;html=1;align=center;verticalAlign=middle;resizable=0;points=[];" parent="TO4eEFyR-_5ruXjA75jF-600" vertex="1" connectable="0">
          <mxGeometry x="-0.3285" y="-3" relative="1" as="geometry">
            <mxPoint y="1" as="offset" />
          </mxGeometry>
        </mxCell>
        <mxCell id="TO4eEFyR-_5ruXjA75jF-602" value="" style="image;aspect=fixed;html=1;points=[];align=center;fontSize=12;image=img/lib/azure2/app_services/CDN_Profiles.svg;" parent="1" vertex="1">
          <mxGeometry x="305.5" y="2917" width="69.7" height="41" as="geometry" />
        </mxCell>
        <mxCell id="TO4eEFyR-_5ruXjA75jF-603" value="Azure CDN" style="text;html=1;align=center;verticalAlign=middle;resizable=0;points=[];autosize=1;strokeColor=none;fillColor=none;" parent="1" vertex="1">
          <mxGeometry x="323" y="2886" width="79" height="26" as="geometry" />
        </mxCell>
        <mxCell id="TO4eEFyR-_5ruXjA75jF-604" value="" style="image;aspect=fixed;html=1;points=[];align=center;fontSize=12;image=img/lib/azure2/networking/Web_Application_Firewall_Policies_WAF.svg;" parent="1" vertex="1">
          <mxGeometry x="481" y="2907" width="54" height="54" as="geometry" />
        </mxCell>
        <mxCell id="TO4eEFyR-_5ruXjA75jF-605" value="" style="verticalLabelPosition=bottom;html=1;verticalAlign=top;align=center;strokeColor=none;fillColor=#00BEF2;shape=mxgraph.azure.azure_load_balancer;" parent="1" vertex="1">
          <mxGeometry x="654" y="2916.5" width="50" height="35" as="geometry" />
        </mxCell>
        <mxCell id="TO4eEFyR-_5ruXjA75jF-606" value="" style="image;aspect=fixed;html=1;points=[];align=center;fontSize=12;image=img/lib/azure2/compute/VM_Scale_Sets.svg;" parent="1" vertex="1">
          <mxGeometry x="802" y="2893" width="68" height="68" as="geometry" />
        </mxCell>
        <mxCell id="TO4eEFyR-_5ruXjA75jF-652" style="edgeStyle=orthogonalEdgeStyle;rounded=0;orthogonalLoop=1;jettySize=auto;html=1;entryX=1;entryY=0.25;entryDx=0;entryDy=0;" parent="1" source="TO4eEFyR-_5ruXjA75jF-607" target="TO4eEFyR-_5ruXjA75jF-597" edge="1">
          <mxGeometry relative="1" as="geometry" />
        </mxCell>
        <mxCell id="TO4eEFyR-_5ruXjA75jF-607" value="" style="image;aspect=fixed;html=1;points=[];align=center;fontSize=12;image=img/lib/azure2/databases/Azure_Database_PostgreSQL_Server.svg;" parent="1" vertex="1">
          <mxGeometry x="1362" y="2912" width="48" height="64" as="geometry" />
        </mxCell>
        <mxCell id="TO4eEFyR-_5ruXjA75jF-608" style="edgeStyle=orthogonalEdgeStyle;rounded=0;orthogonalLoop=1;jettySize=auto;html=1;entryX=-0.025;entryY=0.572;entryDx=0;entryDy=0;entryPerimeter=0;" parent="1" source="TO4eEFyR-_5ruXjA75jF-602" target="TO4eEFyR-_5ruXjA75jF-604" edge="1">
          <mxGeometry relative="1" as="geometry" />
        </mxCell>
        <mxCell id="TO4eEFyR-_5ruXjA75jF-609" style="edgeStyle=orthogonalEdgeStyle;rounded=0;orthogonalLoop=1;jettySize=auto;html=1;entryX=0.05;entryY=0.5;entryDx=0;entryDy=0;entryPerimeter=0;" parent="1" source="TO4eEFyR-_5ruXjA75jF-604" target="TO4eEFyR-_5ruXjA75jF-605" edge="1">
          <mxGeometry relative="1" as="geometry" />
        </mxCell>
        <mxCell id="TO4eEFyR-_5ruXjA75jF-610" style="edgeStyle=orthogonalEdgeStyle;rounded=0;orthogonalLoop=1;jettySize=auto;html=1;entryX=-0.034;entryY=0.966;entryDx=0;entryDy=0;entryPerimeter=0;" parent="1" source="TO4eEFyR-_5ruXjA75jF-605" target="TO4eEFyR-_5ruXjA75jF-606" edge="1">
          <mxGeometry relative="1" as="geometry" />
        </mxCell>
        <mxCell id="TO4eEFyR-_5ruXjA75jF-611" style="edgeStyle=orthogonalEdgeStyle;rounded=0;orthogonalLoop=1;jettySize=auto;html=1;entryX=-0.005;entryY=0.613;entryDx=0;entryDy=0;entryPerimeter=0;" parent="1" source="TO4eEFyR-_5ruXjA75jF-599" target="TO4eEFyR-_5ruXjA75jF-607" edge="1">
          <mxGeometry relative="1" as="geometry" />
        </mxCell>
        <mxCell id="TO4eEFyR-_5ruXjA75jF-612" value="" style="image;aspect=fixed;html=1;points=[];align=center;fontSize=12;image=img/lib/azure2/management_governance/Monitor.svg;" parent="1" vertex="1">
          <mxGeometry x="354" y="3184.5" width="64" height="64" as="geometry" />
        </mxCell>
        <mxCell id="TO4eEFyR-_5ruXjA75jF-668" style="edgeStyle=orthogonalEdgeStyle;rounded=0;orthogonalLoop=1;jettySize=auto;html=1;" parent="1" source="TO4eEFyR-_5ruXjA75jF-613" target="TO4eEFyR-_5ruXjA75jF-638" edge="1">
          <mxGeometry relative="1" as="geometry" />
        </mxCell>
        <mxCell id="TO4eEFyR-_5ruXjA75jF-613" value="" style="verticalLabelPosition=bottom;html=1;verticalAlign=top;align=center;strokeColor=none;fillColor=#00BEF2;shape=mxgraph.azure.azure_alert;" parent="1" vertex="1">
          <mxGeometry x="1272" y="3608" width="58" height="65" as="geometry" />
        </mxCell>
        <mxCell id="TO4eEFyR-_5ruXjA75jF-666" style="edgeStyle=orthogonalEdgeStyle;rounded=0;orthogonalLoop=1;jettySize=auto;html=1;entryX=0.5;entryY=0;entryDx=0;entryDy=0;" parent="1" source="TO4eEFyR-_5ruXjA75jF-614" target="TO4eEFyR-_5ruXjA75jF-663" edge="1">
          <mxGeometry relative="1" as="geometry" />
        </mxCell>
        <mxCell id="TO4eEFyR-_5ruXjA75jF-667" style="edgeStyle=orthogonalEdgeStyle;rounded=0;orthogonalLoop=1;jettySize=auto;html=1;" parent="1" source="TO4eEFyR-_5ruXjA75jF-614" target="TO4eEFyR-_5ruXjA75jF-654" edge="1">
          <mxGeometry relative="1" as="geometry" />
        </mxCell>
        <mxCell id="TO4eEFyR-_5ruXjA75jF-614" value="&lt;div&gt;&lt;br class=&quot;Apple-interchange-newline&quot;&gt;&lt;br&gt;&lt;/div&gt;&lt;div&gt;&lt;b&gt;webapp&lt;br&gt;dynatrace oneagent /&lt;/b&gt;&lt;/div&gt;&lt;div&gt;&lt;b&gt;File beat / Splunk forwarder&lt;br&gt;&lt;br&gt;&lt;/b&gt;&lt;/div&gt;" style="text;html=1;align=center;verticalAlign=middle;whiteSpace=wrap;rounded=0;" parent="1" vertex="1">
          <mxGeometry x="858" y="2977" width="141" height="64" as="geometry" />
        </mxCell>
        <mxCell id="TO4eEFyR-_5ruXjA75jF-617" style="edgeStyle=orthogonalEdgeStyle;rounded=0;orthogonalLoop=1;jettySize=auto;html=1;entryX=0.061;entryY=0.522;entryDx=0;entryDy=0;entryPerimeter=0;" parent="1" target="TO4eEFyR-_5ruXjA75jF-602" edge="1">
          <mxGeometry relative="1" as="geometry">
            <mxPoint x="210" y="2938" as="sourcePoint" />
          </mxGeometry>
        </mxCell>
        <mxCell id="TO4eEFyR-_5ruXjA75jF-620" value="&lt;div style=&quot;text-align: center;&quot;&gt;&lt;span style=&quot;background-color: initial; text-wrap: nowrap;&quot;&gt;&lt;font style=&quot;font-size: 14px;&quot;&gt;firewall&lt;/font&gt;&lt;/span&gt;&lt;/div&gt;" style="text;whiteSpace=wrap;html=1;" parent="1" vertex="1">
          <mxGeometry x="477.9966666666665" y="2880.9955555555557" width="89" height="36" as="geometry" />
        </mxCell>
        <mxCell id="TO4eEFyR-_5ruXjA75jF-623" value="DB" style="text;html=1;align=center;verticalAlign=middle;resizable=0;points=[];autosize=1;strokeColor=none;fillColor=none;" parent="1" vertex="1">
          <mxGeometry x="1334" y="2891" width="35" height="26" as="geometry" />
        </mxCell>
        <mxCell id="TO4eEFyR-_5ruXjA75jF-624" value="Loadbalancer" style="text;html=1;align=center;verticalAlign=middle;resizable=0;points=[];autosize=1;strokeColor=none;fillColor=none;" parent="1" vertex="1">
          <mxGeometry x="636" y="2890.5" width="91" height="26" as="geometry" />
        </mxCell>
        <mxCell id="TO4eEFyR-_5ruXjA75jF-625" style="edgeStyle=orthogonalEdgeStyle;rounded=0;orthogonalLoop=1;jettySize=auto;html=1;entryX=0.21;entryY=0.423;entryDx=0;entryDy=0;entryPerimeter=0;dashed=1;" parent="1" source="TO4eEFyR-_5ruXjA75jF-604" edge="1">
          <mxGeometry relative="1" as="geometry">
            <mxPoint x="412.12000000000035" y="3179.8520000000003" as="targetPoint" />
          </mxGeometry>
        </mxCell>
        <mxCell id="TO4eEFyR-_5ruXjA75jF-626" style="edgeStyle=orthogonalEdgeStyle;rounded=0;orthogonalLoop=1;jettySize=auto;html=1;entryX=0.809;entryY=0.003;entryDx=0;entryDy=0;entryPerimeter=0;dashed=1;" parent="1" source="TO4eEFyR-_5ruXjA75jF-605" target="TO4eEFyR-_5ruXjA75jF-594" edge="1">
          <mxGeometry relative="1" as="geometry">
            <Array as="points">
              <mxPoint x="679" y="2979" />
              <mxPoint x="491" y="2979" />
            </Array>
          </mxGeometry>
        </mxCell>
        <mxCell id="TO4eEFyR-_5ruXjA75jF-627" style="edgeStyle=orthogonalEdgeStyle;rounded=0;orthogonalLoop=1;jettySize=auto;html=1;exitX=0;exitY=0.75;exitDx=0;exitDy=0;entryX=0.947;entryY=0.003;entryDx=0;entryDy=0;entryPerimeter=0;dashed=1;" parent="1" source="TO4eEFyR-_5ruXjA75jF-599" target="TO4eEFyR-_5ruXjA75jF-594" edge="1">
          <mxGeometry relative="1" as="geometry" />
        </mxCell>
        <mxCell id="TO4eEFyR-_5ruXjA75jF-629" value="" style="endArrow=classic;html=1;rounded=0;exitX=0.171;exitY=0.188;exitDx=0;exitDy=0;exitPerimeter=0;" parent="1" target="TO4eEFyR-_5ruXjA75jF-597" edge="1">
          <mxGeometry width="50" height="50" relative="1" as="geometry">
            <mxPoint x="358.6120000000001" y="2962.712" as="sourcePoint" />
            <mxPoint x="834" y="3215" as="targetPoint" />
          </mxGeometry>
        </mxCell>
        <mxCell id="TO4eEFyR-_5ruXjA75jF-630" value="Diagnostics settings" style="edgeLabel;html=1;align=center;verticalAlign=middle;resizable=0;points=[];" parent="TO4eEFyR-_5ruXjA75jF-629" vertex="1" connectable="0">
          <mxGeometry x="0.2772" y="5" relative="1" as="geometry">
            <mxPoint x="89" y="-14" as="offset" />
          </mxGeometry>
        </mxCell>
        <mxCell id="TO4eEFyR-_5ruXjA75jF-631" value="" style="endArrow=classic;html=1;rounded=0;exitX=0.984;exitY=1.004;exitDx=0;exitDy=0;exitPerimeter=0;" parent="1" source="TO4eEFyR-_5ruXjA75jF-604" target="TO4eEFyR-_5ruXjA75jF-597" edge="1">
          <mxGeometry width="50" height="50" relative="1" as="geometry">
            <mxPoint x="784" y="3265" as="sourcePoint" />
            <mxPoint x="834" y="3215" as="targetPoint" />
          </mxGeometry>
        </mxCell>
        <mxCell id="TO4eEFyR-_5ruXjA75jF-632" value="" style="endArrow=classic;html=1;rounded=0;exitX=0.691;exitY=0.992;exitDx=0;exitDy=0;exitPerimeter=0;" parent="1" source="TO4eEFyR-_5ruXjA75jF-605" target="TO4eEFyR-_5ruXjA75jF-597" edge="1">
          <mxGeometry width="50" height="50" relative="1" as="geometry">
            <mxPoint x="856" y="3288" as="sourcePoint" />
            <mxPoint x="906" y="3238" as="targetPoint" />
          </mxGeometry>
        </mxCell>
        <mxCell id="TO4eEFyR-_5ruXjA75jF-633" value="" style="endArrow=classic;html=1;rounded=0;exitX=0.163;exitY=0.998;exitDx=0;exitDy=0;exitPerimeter=0;" parent="1" source="TO4eEFyR-_5ruXjA75jF-599" target="TO4eEFyR-_5ruXjA75jF-597" edge="1">
          <mxGeometry width="50" height="50" relative="1" as="geometry">
            <mxPoint x="856" y="3288" as="sourcePoint" />
            <mxPoint x="906" y="3238" as="targetPoint" />
          </mxGeometry>
        </mxCell>
        <mxCell id="TO4eEFyR-_5ruXjA75jF-636" value="" style="edgeStyle=orthogonalEdgeStyle;rounded=0;orthogonalLoop=1;jettySize=auto;html=1;exitX=1;exitY=0.5;exitDx=0;exitDy=0;" parent="1" source="TO4eEFyR-_5ruXjA75jF-638" target="TO4eEFyR-_5ruXjA75jF-641" edge="1">
          <mxGeometry relative="1" as="geometry">
            <Array as="points">
              <mxPoint x="1358" y="3870" />
              <mxPoint x="1358" y="3970" />
              <mxPoint x="1200" y="3970" />
            </Array>
          </mxGeometry>
        </mxCell>
        <mxCell id="TO4eEFyR-_5ruXjA75jF-637" style="edgeStyle=orthogonalEdgeStyle;rounded=0;orthogonalLoop=1;jettySize=auto;html=1;entryX=0.5;entryY=0;entryDx=0;entryDy=0;" parent="1" source="TO4eEFyR-_5ruXjA75jF-638" target="TO4eEFyR-_5ruXjA75jF-643" edge="1">
          <mxGeometry relative="1" as="geometry">
            <Array as="points">
              <mxPoint x="1116" y="4000" />
            </Array>
          </mxGeometry>
        </mxCell>
        <mxCell id="TO4eEFyR-_5ruXjA75jF-638" value="&lt;b&gt;&lt;font style=&quot;font-size: 22px;&quot;&gt;Opsgenie&lt;/font&gt;&lt;/b&gt;" style="rounded=1;whiteSpace=wrap;html=1;fillColor=#dae8fc;strokeColor=#6c8ebf;" parent="1" vertex="1">
          <mxGeometry x="1102" y="3833" width="222.78" height="74.5" as="geometry" />
        </mxCell>
        <mxCell id="TO4eEFyR-_5ruXjA75jF-639" value="JIRA" style="rounded=1;whiteSpace=wrap;html=1;" parent="1" vertex="1">
          <mxGeometry x="815.0022222222221" y="3840.25" width="120" height="60" as="geometry" />
        </mxCell>
        <mxCell id="TO4eEFyR-_5ruXjA75jF-640" value="" style="endArrow=classic;startArrow=classic;html=1;rounded=0;exitX=0;exitY=0.5;exitDx=0;exitDy=0;entryX=0.376;entryY=1.007;entryDx=0;entryDy=0;entryPerimeter=0;" parent="1" source="TO4eEFyR-_5ruXjA75jF-638" edge="1">
          <mxGeometry width="50" height="50" relative="1" as="geometry">
            <mxPoint x="1176.88" y="3840.25" as="sourcePoint" />
            <mxPoint x="935.0022222222223" y="3870.67" as="targetPoint" />
          </mxGeometry>
        </mxCell>
        <mxCell id="TO4eEFyR-_5ruXjA75jF-641" value="EMAIL&#39;s ,&lt;div&gt;MSTEAMS channel&lt;/div&gt;" style="whiteSpace=wrap;html=1;rounded=1;" parent="1" vertex="1">
          <mxGeometry x="1140" y="4009" width="123" height="77.5" as="geometry" />
        </mxCell>
        <mxCell id="TO4eEFyR-_5ruXjA75jF-642" style="edgeStyle=orthogonalEdgeStyle;rounded=0;orthogonalLoop=1;jettySize=auto;html=1;exitX=0.25;exitY=1;exitDx=0;exitDy=0;" parent="1" source="TO4eEFyR-_5ruXjA75jF-643" edge="1">
          <mxGeometry relative="1" as="geometry">
            <mxPoint x="934.6153846153843" y="4092.461538461538" as="targetPoint" />
          </mxGeometry>
        </mxCell>
        <mxCell id="TO4eEFyR-_5ruXjA75jF-643" value="Phone calls&amp;nbsp;" style="whiteSpace=wrap;html=1;rounded=1;" parent="1" vertex="1">
          <mxGeometry x="903" y="4009" width="120" height="78" as="geometry" />
        </mxCell>
        <mxCell id="TO4eEFyR-_5ruXjA75jF-645" value="P0, P1 issues" style="text;html=1;align=center;verticalAlign=middle;resizable=0;points=[];autosize=1;strokeColor=none;fillColor=none;" parent="1" vertex="1">
          <mxGeometry x="997" y="3952" width="91" height="26" as="geometry" />
        </mxCell>
        <mxCell id="TO4eEFyR-_5ruXjA75jF-647" value="" style="verticalLabelPosition=bottom;html=1;verticalAlign=top;align=center;strokeColor=none;fillColor=#00BEF2;shape=mxgraph.azure.cloud;" parent="1" vertex="1">
          <mxGeometry x="1342" y="1333" width="120" height="71" as="geometry" />
        </mxCell>
        <mxCell id="TO4eEFyR-_5ruXjA75jF-648" value="" style="verticalLabelPosition=bottom;html=1;verticalAlign=top;align=center;strokeColor=none;fillColor=#00BEF2;shape=mxgraph.azure.cloud;" parent="1" vertex="1">
          <mxGeometry x="1320" y="1331" width="120" height="71" as="geometry" />
        </mxCell>
        <mxCell id="TO4eEFyR-_5ruXjA75jF-650" value="" style="sketch=0;outlineConnect=0;fontColor=#232F3E;gradientColor=none;fillColor=#232F3D;strokeColor=none;dashed=0;verticalLabelPosition=bottom;verticalAlign=top;align=center;html=1;fontSize=12;fontStyle=0;aspect=fixed;pointerEvents=1;shape=mxgraph.aws4.authenticated_user;" parent="1" vertex="1">
          <mxGeometry x="154" y="2903" width="52" height="52" as="geometry" />
        </mxCell>
        <mxCell id="TO4eEFyR-_5ruXjA75jF-651" value="" style="image;sketch=0;aspect=fixed;html=1;points=[];align=center;fontSize=12;image=img/lib/mscae/Event_Hubs.svg;" parent="1" vertex="1">
          <mxGeometry x="590" y="3191.5" width="48" height="50" as="geometry" />
        </mxCell>
        <mxCell id="TO4eEFyR-_5ruXjA75jF-684" style="edgeStyle=orthogonalEdgeStyle;rounded=0;orthogonalLoop=1;jettySize=auto;html=1;entryX=0;entryY=0.5;entryDx=0;entryDy=0;" parent="1" source="TO4eEFyR-_5ruXjA75jF-654" target="TO4eEFyR-_5ruXjA75jF-681" edge="1">
          <mxGeometry relative="1" as="geometry" />
        </mxCell>
        <mxCell id="TO4eEFyR-_5ruXjA75jF-654" value="&lt;b&gt;&lt;font style=&quot;font-size: 15px;&quot;&gt;Elastic Cloud&lt;/font&gt;&lt;/b&gt;" style="rounded=0;whiteSpace=wrap;html=1;" parent="1" vertex="1">
          <mxGeometry x="1162" y="3338" width="185" height="137" as="geometry" />
        </mxCell>
        <mxCell id="TO4eEFyR-_5ruXjA75jF-655" value="&lt;b&gt;&lt;font style=&quot;font-size: 14px;&quot;&gt;SPLUNK&lt;/font&gt;&lt;/b&gt;&lt;div&gt;&lt;b&gt;&lt;br&gt;&lt;/b&gt;&lt;/div&gt;&lt;div&gt;&lt;b&gt;Microsoft Azure Add-on for eventhub&lt;/b&gt;&lt;/div&gt;" style="rounded=0;whiteSpace=wrap;html=1;" parent="1" vertex="1">
          <mxGeometry x="1420" y="3188" width="185" height="137" as="geometry" />
        </mxCell>
        <mxCell id="TO4eEFyR-_5ruXjA75jF-656" value="&lt;b&gt;Elastic Agent&lt;/b&gt;" style="rounded=1;whiteSpace=wrap;html=1;" parent="1" vertex="1">
          <mxGeometry x="927" y="3390" width="120" height="60" as="geometry" />
        </mxCell>
        <mxCell id="TO4eEFyR-_5ruXjA75jF-658" style="edgeStyle=orthogonalEdgeStyle;rounded=0;orthogonalLoop=1;jettySize=auto;html=1;entryX=0.009;entryY=0.606;entryDx=0;entryDy=0;entryPerimeter=0;" parent="1" source="TO4eEFyR-_5ruXjA75jF-656" target="TO4eEFyR-_5ruXjA75jF-654" edge="1">
          <mxGeometry relative="1" as="geometry" />
        </mxCell>
        <mxCell id="TO4eEFyR-_5ruXjA75jF-659" value="Pull" style="text;html=1;align=center;verticalAlign=middle;resizable=0;points=[];autosize=1;strokeColor=none;fillColor=none;" parent="1" vertex="1">
          <mxGeometry x="1001" y="3325" width="38" height="26" as="geometry" />
        </mxCell>
        <mxCell id="TO4eEFyR-_5ruXjA75jF-660" value="Push" style="text;html=1;align=center;verticalAlign=middle;resizable=0;points=[];autosize=1;strokeColor=none;fillColor=none;" parent="1" vertex="1">
          <mxGeometry x="1064" y="3429" width="45" height="26" as="geometry" />
        </mxCell>
        <mxCell id="TO4eEFyR-_5ruXjA75jF-662" value="&lt;b&gt;PULL&lt;/b&gt;" style="text;html=1;align=center;verticalAlign=middle;resizable=0;points=[];autosize=1;strokeColor=none;fillColor=none;" parent="1" vertex="1">
          <mxGeometry x="1302" y="3252" width="49" height="26" as="geometry" />
        </mxCell>
        <mxCell id="TO4eEFyR-_5ruXjA75jF-663" value="&lt;b&gt;&lt;font style=&quot;font-size: 16px;&quot;&gt;Dynatrace&lt;/font&gt;&lt;/b&gt;" style="rounded=0;whiteSpace=wrap;html=1;" parent="1" vertex="1">
          <mxGeometry x="1550" y="3390" width="216.5" height="88" as="geometry" />
        </mxCell>
        <mxCell id="TO4eEFyR-_5ruXjA75jF-665" style="edgeStyle=orthogonalEdgeStyle;rounded=0;orthogonalLoop=1;jettySize=auto;html=1;entryX=0.587;entryY=-0.034;entryDx=0;entryDy=0;entryPerimeter=0;" parent="1" source="TO4eEFyR-_5ruXjA75jF-614" target="TO4eEFyR-_5ruXjA75jF-655" edge="1">
          <mxGeometry relative="1" as="geometry">
            <Array as="points">
              <mxPoint x="928" y="3145" />
              <mxPoint x="1528" y="3145" />
            </Array>
          </mxGeometry>
        </mxCell>
        <mxCell id="TO4eEFyR-_5ruXjA75jF-669" value="&lt;b&gt;&amp;nbsp; &amp;nbsp; &amp;nbsp; &amp;nbsp; ALERTS&lt;/b&gt;" style="text;html=1;align=center;verticalAlign=middle;resizable=0;points=[];autosize=1;strokeColor=none;fillColor=none;" parent="1" vertex="1">
          <mxGeometry x="1283" y="3623" width="92" height="26" as="geometry" />
        </mxCell>
        <mxCell id="TO4eEFyR-_5ruXjA75jF-670" style="edgeStyle=orthogonalEdgeStyle;rounded=0;orthogonalLoop=1;jettySize=auto;html=1;entryX=0.456;entryY=1.005;entryDx=0;entryDy=0;entryPerimeter=0;" parent="1" source="TO4eEFyR-_5ruXjA75jF-594" target="TO4eEFyR-_5ruXjA75jF-654" edge="1">
          <mxGeometry relative="1" as="geometry">
            <Array as="points">
              <mxPoint x="438" y="3492" />
              <mxPoint x="830" y="3492" />
              <mxPoint x="830" y="3495" />
              <mxPoint x="1246" y="3495" />
            </Array>
          </mxGeometry>
        </mxCell>
        <mxCell id="TO4eEFyR-_5ruXjA75jF-671" value="Azure resource Metric Integration" style="text;html=1;align=center;verticalAlign=middle;resizable=0;points=[];autosize=1;strokeColor=none;fillColor=none;" parent="1" vertex="1">
          <mxGeometry x="1024" y="3494" width="195" height="26" as="geometry" />
        </mxCell>
        <mxCell id="TO4eEFyR-_5ruXjA75jF-674" value="only metric logs via inbuilt integration" style="text;html=1;align=center;verticalAlign=middle;resizable=0;points=[];autosize=1;strokeColor=none;fillColor=none;" parent="1" vertex="1">
          <mxGeometry x="1375" y="3338" width="214" height="26" as="geometry" />
        </mxCell>
        <mxCell id="TO4eEFyR-_5ruXjA75jF-675" value="Inbuild integration for metrics&lt;div&gt;post Azure authentication&lt;/div&gt;" style="text;html=1;align=center;verticalAlign=middle;resizable=0;points=[];autosize=1;strokeColor=none;fillColor=none;" parent="1" vertex="1">
          <mxGeometry x="1515" y="3545" width="172" height="41" as="geometry" />
        </mxCell>
        <mxCell id="TO4eEFyR-_5ruXjA75jF-676" style="edgeStyle=orthogonalEdgeStyle;rounded=0;orthogonalLoop=1;jettySize=auto;html=1;entryX=0.196;entryY=-0.282;entryDx=0;entryDy=0;entryPerimeter=0;" parent="1" source="TO4eEFyR-_5ruXjA75jF-654" target="TO4eEFyR-_5ruXjA75jF-669" edge="1">
          <mxGeometry relative="1" as="geometry" />
        </mxCell>
        <mxCell id="TO4eEFyR-_5ruXjA75jF-677" value="Azure log forwarder&lt;div&gt;(VM or azure function)&lt;/div&gt;" style="rounded=1;whiteSpace=wrap;html=1;" parent="1" vertex="1">
          <mxGeometry x="1670" y="3227.5" width="120" height="60" as="geometry" />
        </mxCell>
        <mxCell id="TO4eEFyR-_5ruXjA75jF-679" style="edgeStyle=orthogonalEdgeStyle;rounded=0;orthogonalLoop=1;jettySize=auto;html=1;entryX=0.827;entryY=-0.011;entryDx=0;entryDy=0;entryPerimeter=0;" parent="1" source="TO4eEFyR-_5ruXjA75jF-677" target="TO4eEFyR-_5ruXjA75jF-663" edge="1">
          <mxGeometry relative="1" as="geometry" />
        </mxCell>
        <mxCell id="TO4eEFyR-_5ruXjA75jF-681" value="&lt;b&gt;&lt;font style=&quot;font-size: 15px;&quot;&gt;Grafana Dashboards&lt;/font&gt;&lt;/b&gt;" style="rounded=0;whiteSpace=wrap;html=1;" parent="1" vertex="1">
          <mxGeometry x="1560" y="3678" width="207" height="107" as="geometry" />
        </mxCell>
        <mxCell id="TO4eEFyR-_5ruXjA75jF-682" value="" style="image;aspect=fixed;html=1;points=[];align=center;fontSize=12;image=img/lib/azure2/other/Grafana.svg;" parent="1" vertex="1">
          <mxGeometry x="1560" y="3676" width="54.09" height="42" as="geometry" />
        </mxCell>
      </root>
    </mxGraphModel>
  </diagram>
</mxfile>
